<svg xmlns="http://www.w3.org/2000/svg" viewBox="0 0 24 24" fill="currentColor" width="32" height="32" color="#0077FF"> <!-- primary -->
  <path fill-rule="evenodd" d="M12 1.5a5.25 5.25 0 0 0-5.25 5.25v3a3 3 0 0 0-3 3v6.75a3 3 0 0 0 3 3h10.5a3 3 0 0 0 3-3v-6.75a3 3 0 0 0-3-3v-3A5.25 5.25 0 0 0 12 1.5Zm-3.75 5.25a3.75 3.75 0 0 0 7.5 0v3h-7.5v-3ZM4.5 19.5v-6.75a1.5 1.5 0 0 1 1.5-1.5h10.5a1.5 1.5 0 0 1 1.5 1.5v6.75a1.5 1.5 0 0 1-1.5 1.5H6a1.5 1.5 0 0 1-1.5-1.5ZM10.5 13.125a.75.75 0 1 1-1.5 0 .75.75 0 0 1 1.5 0Zm3.75-.75a.75.75 0 1 0 0 1.5.75.75 0 0 0 0-1.5Z" clip-rule="evenodd" />
</svg> 